<svg xmlns="http://www.w3.org/2000/svg" viewBox="0 0 128 128" width="128" height="128">
  <defs>
    <linearGradient id="bg" x1="0%" y1="0%" x2="100%" y2="100%">
      <stop offset="0%" stop-color="#1e1b4b"/>
      <stop offset="100%" stop-color="#0a0a0c"/>
    </linearGradient>
    <radialGradient id="glow" cx="50%" cy="35%" r="60%">
      <stop offset="0%" stop-color="rgba(99,102,241,0.4)"/>
      <stop offset="100%" stop-color="rgba(99,102,241,0)"/>
    </radialGradient>
    <radialGradient id="cherry" cx="35%" cy="35%" r="65%">
      <stop offset="0%" stop-color="#fb7185"/>
      <stop offset="60%" stop-color="#ef4444"/>
      <stop offset="100%" stop-color="#b91c1c"/>
    </radialGradient>
    <linearGradient id="leaf" x1="0%" y1="0%" x2="100%" y2="100%">
      <stop offset="0%" stop-color="#86efac"/>
      <stop offset="100%" stop-color="#15803d"/>
    </linearGradient>
  </defs>

  <!-- Frame -->
  <rect width="128" height="128" rx="28" fill="url(#bg)"/>
  <rect width="128" height="128" rx="28" fill="url(#glow)"/>

  <!-- Stems -->
  <path d="M 50 78 Q 56 50 64 30" stroke="#84cc16" stroke-width="3" fill="none" stroke-linecap="round"/>
  <path d="M 80 80 Q 72 56 64 30" stroke="#84cc16" stroke-width="3" fill="none" stroke-linecap="round"/>

  <!-- Leaf -->
  <path d="M 64 30 Q 84 18 92 32 Q 84 40 64 30 Z" fill="url(#leaf)"/>

  <!-- Cherries (left + right) -->
  <circle cx="46" cy="86" r="20" fill="url(#cherry)"/>
  <circle cx="84" cy="92" r="20" fill="url(#cherry)"/>

  <!-- Cherry highlights -->
  <ellipse cx="40" cy="79" rx="6" ry="4" fill="rgba(255,255,255,0.55)" transform="rotate(-25 40 79)"/>
  <ellipse cx="78" cy="85" rx="6" ry="4" fill="rgba(255,255,255,0.55)" transform="rotate(-25 78 85)"/>
</svg>